<svg width="105" height="24" viewBox="0 0 105 24" fill="none" xmlns="http://www.w3.org/2000/svg">
<path d="M39.912 18.128C39.0907 18.128 38.3653 17.9627 37.736 17.632C37.1067 17.3013 36.616 16.8427 36.264 16.256C35.9227 15.6587 35.752 14.9707 35.752 14.192V10.608C35.752 9.82933 35.9227 9.14133 36.264 8.544C36.616 7.94667 37.1067 7.488 37.736 7.168C38.3653 6.83733 39.0907 6.672 39.912 6.672C40.7227 6.672 41.4373 6.832 42.056 7.152C42.6853 7.472 43.1707 7.90933 43.512 8.464C43.864 9.008 44.04 9.616 44.04 10.288V10.4C44.04 10.4533 44.0187 10.5013 43.976 10.544C43.944 10.576 43.9013 10.592 43.848 10.592H41.976C41.9227 10.592 41.8747 10.576 41.832 10.544C41.8 10.5013 41.784 10.4533 41.784 10.4V10.352C41.784 9.86133 41.6133 9.45067 41.272 9.12C40.9307 8.77867 40.4773 8.608 39.912 8.608C39.336 8.608 38.872 8.78933 38.52 9.152C38.1787 9.504 38.008 9.968 38.008 10.544V14.256C38.008 14.832 38.1947 15.3013 38.568 15.664C38.9413 16.016 39.416 16.192 39.992 16.192C40.5467 16.192 40.9893 16.048 41.32 15.76C41.6507 15.4613 41.816 15.0507 41.816 14.528V13.808C41.816 13.7547 41.7893 13.728 41.736 13.728H39.944C39.8907 13.728 39.8427 13.712 39.8 13.68C39.768 13.6373 39.752 13.5893 39.752 13.536V12.064C39.752 12.0107 39.768 11.968 39.8 11.936C39.8427 11.8933 39.8907 11.872 39.944 11.872H43.848C43.9013 11.872 43.944 11.8933 43.976 11.936C44.0187 11.968 44.04 12.0107 44.04 12.064V14.176C44.04 14.9867 43.8693 15.6907 43.528 16.288C43.1867 16.8853 42.7013 17.344 42.072 17.664C41.4533 17.9733 40.7333 18.128 39.912 18.128ZM49.2453 18.128C48.3493 18.128 47.5813 17.8933 46.9413 17.424C46.3013 16.9547 45.8639 16.3147 45.6293 15.504C45.4799 15.0027 45.4053 14.4587 45.4053 13.872C45.4053 13.2427 45.4799 12.6773 45.6293 12.176C45.8746 11.3867 46.3173 10.768 46.9573 10.32C47.5973 9.872 48.3653 9.648 49.2613 9.648C50.1359 9.648 50.8826 9.872 51.5013 10.32C52.1199 10.7573 52.5573 11.3707 52.8133 12.16C52.9839 12.6933 53.0693 13.2533 53.0693 13.84C53.0693 14.416 52.9946 14.9547 52.8453 15.456C52.6106 16.288 52.1733 16.944 51.5333 17.424C50.9039 17.8933 50.1413 18.128 49.2453 18.128ZM49.2453 16.192C49.5973 16.192 49.8959 16.0853 50.1413 15.872C50.3866 15.6587 50.5626 15.3653 50.6693 14.992C50.7546 14.6507 50.7973 14.2773 50.7973 13.872C50.7973 13.424 50.7546 13.0453 50.6693 12.736C50.5519 12.3733 50.3706 12.0907 50.1253 11.888C49.8799 11.6853 49.5813 11.584 49.2293 11.584C48.8666 11.584 48.5626 11.6853 48.3173 11.888C48.0826 12.0907 47.9119 12.3733 47.8053 12.736C47.7199 12.992 47.6773 13.3707 47.6773 13.872C47.6773 14.352 47.7146 14.7253 47.7893 14.992C47.8959 15.3653 48.0719 15.6587 48.3173 15.872C48.5733 16.0853 48.8826 16.192 49.2453 16.192Z" fill="white"/>
<path d="M54.8555 18C54.8022 18 54.7542 17.984 54.7115 17.952C54.6795 17.9093 54.6635 17.8613 54.6635 17.808V6.992C54.6635 6.93867 54.6795 6.896 54.7115 6.864C54.7542 6.82133 54.8022 6.8 54.8555 6.8H58.8555C59.6555 6.8 60.3542 6.944 60.9515 7.232C61.5595 7.50933 62.0288 7.904 62.3595 8.416C62.6902 8.928 62.8555 9.52 62.8555 10.192V14.608C62.8555 15.28 62.6902 15.872 62.3595 16.384C62.0288 16.896 61.5595 17.296 60.9515 17.584C60.3542 17.8613 59.6555 18 58.8555 18H54.8555ZM56.9195 15.984C56.9195 16.0373 56.9462 16.064 56.9995 16.064H58.9355C59.4262 16.064 59.8208 15.8987 60.1195 15.568C60.4288 15.2373 60.5888 14.7947 60.5995 14.24V10.56C60.5995 10.0053 60.4448 9.56267 60.1355 9.232C59.8368 8.90133 59.4315 8.736 58.9195 8.736H56.9995C56.9462 8.736 56.9195 8.76267 56.9195 8.816V15.984ZM68.0421 18.128C67.1461 18.128 66.3781 17.8933 65.7381 17.424C65.0981 16.9547 64.6608 16.3147 64.4261 15.504C64.2768 15.0027 64.2021 14.4587 64.2021 13.872C64.2021 13.2427 64.2768 12.6773 64.4261 12.176C64.6715 11.3867 65.1141 10.768 65.7541 10.32C66.3941 9.872 67.1621 9.648 68.0581 9.648C68.9328 9.648 69.6795 9.872 70.2981 10.32C70.9168 10.7573 71.3541 11.3707 71.6101 12.16C71.7808 12.6933 71.8661 13.2533 71.8661 13.84C71.8661 14.416 71.7915 14.9547 71.6421 15.456C71.4075 16.288 70.9701 16.944 70.3301 17.424C69.7008 17.8933 68.9381 18.128 68.0421 18.128ZM68.0421 16.192C68.3941 16.192 68.6928 16.0853 68.9381 15.872C69.1835 15.6587 69.3595 15.3653 69.4661 14.992C69.5515 14.6507 69.5941 14.2773 69.5941 13.872C69.5941 13.424 69.5515 13.0453 69.4661 12.736C69.3488 12.3733 69.1675 12.0907 68.9221 11.888C68.6768 11.6853 68.3781 11.584 68.0261 11.584C67.6635 11.584 67.3595 11.6853 67.1141 11.888C66.8795 12.0907 66.7088 12.3733 66.6021 12.736C66.5168 12.992 66.4741 13.3707 66.4741 13.872C66.4741 14.352 66.5115 14.7253 66.5861 14.992C66.6928 15.3653 66.8688 15.6587 67.1141 15.872C67.3701 16.0853 67.6795 16.192 68.0421 16.192ZM77.6044 9.648C78.4577 9.648 79.1457 9.90933 79.6684 10.432C80.191 10.9547 80.4524 11.664 80.4524 12.56V17.808C80.4524 17.8613 80.431 17.9093 80.3884 17.952C80.3564 17.984 80.3137 18 80.2604 18H78.3884C78.335 18 78.287 17.984 78.2444 17.952C78.2124 17.9093 78.1964 17.8613 78.1964 17.808V13.024C78.1964 12.5973 78.0737 12.2507 77.8284 11.984C77.5937 11.7173 77.279 11.584 76.8844 11.584C76.4897 11.584 76.1697 11.7173 75.9244 11.984C75.6897 12.2507 75.5724 12.5973 75.5724 13.024V17.808C75.5724 17.8613 75.551 17.9093 75.5084 17.952C75.4764 17.984 75.4337 18 75.3804 18H73.5084C73.455 18 73.407 17.984 73.3644 17.952C73.3324 17.9093 73.3164 17.8613 73.3164 17.808V9.968C73.3164 9.91467 73.3324 9.872 73.3644 9.84C73.407 9.79733 73.455 9.776 73.5084 9.776H75.3804C75.4337 9.776 75.4764 9.79733 75.5084 9.84C75.551 9.872 75.5724 9.91467 75.5724 9.968V10.528C75.5724 10.56 75.583 10.5813 75.6044 10.592C75.6257 10.6027 75.6417 10.5973 75.6524 10.576C76.0897 9.95733 76.7404 9.648 77.6044 9.648ZM85.3464 9.648C86.0397 9.648 86.6584 9.77067 87.2024 10.016C87.7464 10.2507 88.1677 10.576 88.4664 10.992C88.7757 11.408 88.9304 11.872 88.9304 12.384V17.808C88.9304 17.8613 88.909 17.9093 88.8664 17.952C88.8344 17.984 88.7917 18 88.7384 18H86.8664C86.813 18 86.765 17.984 86.7224 17.952C86.6904 17.9093 86.6744 17.8613 86.6744 17.808V17.28C86.6744 17.248 86.6637 17.2267 86.6424 17.216C86.621 17.2053 86.5997 17.216 86.5784 17.248C86.1304 17.8347 85.4104 18.128 84.4184 18.128C83.5864 18.128 82.9144 17.9253 82.4024 17.52C81.8904 17.1147 81.6344 16.5173 81.6344 15.728C81.6344 14.9067 81.9224 14.272 82.4984 13.824C83.0744 13.3653 83.8957 13.136 84.9624 13.136H86.5944C86.6477 13.136 86.6744 13.1093 86.6744 13.056V12.704C86.6744 12.352 86.5677 12.08 86.3544 11.888C86.141 11.6853 85.821 11.584 85.3944 11.584C85.0637 11.584 84.7864 11.6427 84.5624 11.76C84.349 11.8773 84.2104 12.0427 84.1464 12.256C84.1144 12.3733 84.045 12.4267 83.9384 12.416L82.0024 12.16C81.8744 12.1387 81.8157 12.0907 81.8264 12.016C81.869 11.568 82.045 11.1627 82.3544 10.8C82.6744 10.4373 83.0904 10.1547 83.6024 9.952C84.125 9.74933 84.7064 9.648 85.3464 9.648ZM85.0264 16.448C85.485 16.448 85.8744 16.3253 86.1944 16.08C86.5144 15.8347 86.6744 15.52 86.6744 15.136V14.56C86.6744 14.5067 86.6477 14.48 86.5944 14.48H85.4424C84.9624 14.48 84.5837 14.5707 84.3064 14.752C84.0397 14.9333 83.9064 15.1893 83.9064 15.52C83.9064 15.808 84.0077 16.0373 84.2104 16.208C84.413 16.368 84.685 16.448 85.0264 16.448ZM95.0676 11.392C95.0676 11.4453 95.0463 11.4933 95.0036 11.536C94.9716 11.568 94.929 11.584 94.8756 11.584H93.3396C93.2863 11.584 93.2596 11.6107 93.2596 11.664V15.056C93.2596 15.408 93.329 15.6693 93.4676 15.84C93.617 16.0107 93.8516 16.096 94.1716 16.096H94.6996C94.753 16.096 94.7956 16.1173 94.8276 16.16C94.8703 16.192 94.8916 16.2347 94.8916 16.288V17.808C94.8916 17.9253 94.8276 17.9947 94.6996 18.016C94.2516 18.0373 93.9316 18.048 93.7396 18.048C92.8543 18.048 92.193 17.904 91.7556 17.616C91.3183 17.3173 91.0943 16.7627 91.0836 15.952V11.664C91.0836 11.6107 91.057 11.584 91.0036 11.584H90.0916C90.0383 11.584 89.9903 11.568 89.9476 11.536C89.9156 11.4933 89.8996 11.4453 89.8996 11.392V9.968C89.8996 9.91467 89.9156 9.872 89.9476 9.84C89.9903 9.79733 90.0383 9.776 90.0916 9.776H91.0036C91.057 9.776 91.0836 9.74933 91.0836 9.696V7.792C91.0836 7.73867 91.0996 7.696 91.1316 7.664C91.1743 7.62133 91.2223 7.6 91.2756 7.6H93.0676C93.121 7.6 93.1636 7.62133 93.1956 7.664C93.2383 7.696 93.2596 7.73867 93.2596 7.792V9.696C93.2596 9.74933 93.2863 9.776 93.3396 9.776H94.8756C94.929 9.776 94.9716 9.79733 95.0036 9.84C95.0463 9.872 95.0676 9.91467 95.0676 9.968V11.392ZM103.596 13.04C103.66 13.4453 103.682 13.8987 103.66 14.4C103.65 14.528 103.58 14.592 103.452 14.592H98.5084C98.4444 14.592 98.423 14.6187 98.4444 14.672C98.4764 14.8853 98.535 15.0987 98.6204 15.312C98.8977 15.9093 99.463 16.208 100.316 16.208C100.999 16.1973 101.538 15.92 101.932 15.376C101.975 15.312 102.023 15.28 102.076 15.28C102.108 15.28 102.146 15.3013 102.188 15.344L103.34 16.48C103.394 16.5333 103.42 16.5813 103.42 16.624C103.42 16.6453 103.399 16.688 103.356 16.752C103.004 17.1893 102.551 17.5307 101.996 17.776C101.442 18.0107 100.834 18.128 100.172 18.128C99.255 18.128 98.4764 17.92 97.8364 17.504C97.207 17.088 96.7537 16.5067 96.4764 15.76C96.2524 15.2267 96.1404 14.528 96.1404 13.664C96.1404 13.0773 96.2204 12.56 96.3804 12.112C96.6257 11.3547 97.0524 10.752 97.6604 10.304C98.279 9.856 99.0097 9.632 99.8524 9.632C100.919 9.632 101.772 9.94133 102.412 10.56C103.063 11.1787 103.458 12.0053 103.596 13.04ZM99.8684 11.584C99.1964 11.584 98.7537 11.8987 98.5404 12.528C98.4977 12.6667 98.4604 12.8373 98.4284 13.04C98.4284 13.0933 98.455 13.12 98.5084 13.12H101.276C101.34 13.12 101.362 13.0933 101.34 13.04C101.287 12.7307 101.26 12.5813 101.26 12.592C101.164 12.272 100.994 12.0267 100.748 11.856C100.514 11.6747 100.22 11.584 99.8684 11.584Z" fill="#EA7C69"/>
<g clip-path="url(#clip0_5_16)">
<path d="M2.03255 18.8532C1.64061 18.4607 1.28069 18.0911 1.12609 17.7913C0.458337 16.4947 0.129056 15.1301 0 13.7042C0.423305 13.4002 0.826862 13.0651 1.20782 12.701C1.51428 12.4349 1.76048 12.1681 2.06762 11.8343C2.43606 11.5678 2.8045 11.169 3.17363 10.9006C3.78656 10.5007 4.46385 10.167 5.13978 9.83357C6.30707 9.36675 7.72022 9.16827 8.94915 9.50092C10.3007 9.83357 11.6525 10.1662 13.0037 10.1662C14.4168 10.1662 15.7687 9.89973 17.1818 10.2331C17.8578 10.3666 18.5337 10.5658 19.2093 10.5658C19.8849 10.5658 20.6228 10.7661 20.5608 11.6329C20.4999 12.4334 19.5781 12.5665 18.9638 12.6334C18.4724 12.6996 18.042 12.6334 17.5503 12.6996C17.1819 12.6996 16.7518 12.8334 16.3833 12.8334C14.9089 12.8348 13.4957 13.1013 12.0826 13.3682C11.407 13.5016 10.7924 13.4347 10.1171 13.635C9.87093 13.7685 9.44086 13.9015 9.44086 14.3004C9.44086 14.7672 9.87093 14.7006 10.2394 14.7006C10.854 14.6337 11.5296 14.368 12.0826 14.1673C12.7585 13.8346 13.5577 13.967 14.2333 13.967C14.9089 13.967 15.6465 14.1004 16.2607 13.967C16.5672 13.8335 16.8137 13.7001 17.1206 13.6343C17.4274 13.5685 17.7968 13.5674 18.104 13.5674C19.3942 13.5009 21.0532 13.434 21.6059 11.9005C21.7904 11.3671 21.7904 10.4335 21.36 9.96627C21.1758 9.7663 20.7454 9.69977 20.5002 9.56634C20.2772 9.44548 20.0044 9.2178 19.7729 9.22482C19.8461 9.00712 20.1641 8.79755 20.316 8.63344C20.5615 8.43311 20.868 8.16662 21.1744 7.96629C21.7274 7.4991 22.0962 6.83268 22.7105 6.43239C22.9564 6.23243 23.2025 6.03247 23.571 6.03247C23.8775 6.03247 24.1236 6.03247 24.4308 5.89904C24.9835 5.69871 25.6597 5.43222 26.2744 5.49875C26.6428 5.49875 26.827 5.69871 26.9496 6.099C27.0722 6.49929 26.9496 6.76431 26.7654 7.09954C26.2744 7.89976 25.721 8.56654 25.1677 9.23369C24.6766 9.76704 24.2483 10.3673 23.7552 10.9006C23.2635 11.5009 22.6495 12.0343 22.1575 12.6349C21.6654 13.2355 21.1131 13.7016 20.6218 14.2353C20.1304 14.769 19.6383 15.3024 19.0857 15.7692C18.4728 16.3025 17.9797 16.9028 17.3038 17.3031C16.7508 17.6357 16.1981 18.0364 15.6451 18.3036C15.4609 18.4367 15.2767 18.5701 15.0921 18.5701C14.957 18.6016 14.818 18.6088 14.6807 18.5916C14.3726 18.762 13.9088 18.7024 13.557 18.637C13.5169 18.6304 13.4743 18.6215 13.4338 18.6141C13.1569 18.5631 13.0187 18.5479 13.0905 18.5439C12.7919 18.4755 12.4858 18.3909 12.2052 18.3036C11.8367 18.1702 11.5922 18.1033 11.2224 18.1033H10.239C9.50181 17.9699 8.88752 17.6365 8.15063 17.6365C7.41375 17.6365 6.73714 17.7699 6.06156 17.7699C5.38597 17.7699 4.83263 17.9699 4.15466 18.1026C3.4978 18.2323 2.78339 18.5524 2.17965 18.9992C2.12994 18.9501 2.07988 18.9009 2.03255 18.8532Z" fill="#EA7C69"/>
<path d="M9.55283 0.684904C9.64589 0.571048 9.75001 0.468439 9.86338 0.378864C10.0922 0.198749 10.3577 0.081329 10.6374 0.0366014C11.6787 -0.161142 12.8691 0.45907 13.3932 1.49325C13.5835 1.18277 13.7739 0.820922 14.0882 0.593979C14.2085 0.484288 14.3372 0.38598 14.473 0.300136C14.5833 0.230206 14.6991 0.170843 14.8189 0.122721C16.2025 -0.264634 17.8216 0.872668 17.9176 2.4232C17.9176 2.57844 17.8703 2.73367 17.8543 2.9037C17.8299 3.05395 17.7957 3.20216 17.7522 3.34723C17.5802 3.92494 17.2696 4.45127 16.9179 4.95025C16.83 5.07481 16.7395 5.19789 16.6479 5.31986C16.3938 5.57859 16.2031 5.94081 15.9178 6.1478C15.2926 6.53589 14.7978 7.02378 14.3054 7.52535L14.0092 7.82695C13.7746 8.00843 13.5365 8.47378 13.3462 8.31891C13.2175 8.23094 13.0907 8.14088 12.9658 8.04872C12.8412 7.95706 12.7176 7.86391 12.5964 7.76782C11.3457 6.4579 9.82184 5.3206 9.22525 3.53574C9.1912 3.39491 9.16327 3.25298 9.14148 3.11031C9.00698 2.25207 9.09381 1.38052 9.55283 0.684904Z" fill="#EA7C69"/>
</g>
<defs>
<clipPath id="clip0_5_16">
<rect width="27" height="19" fill="white"/>
</clipPath>
</defs>
</svg>
